<svg xmlns="http://www.w3.org/2000/svg" version="1.1" xmlns:xlink="http://www.w3.org/1999/xlink" xmlns:svgjs="http://svgjs.dev/svgjs" width="100%" height="100%" viewBox="0 0 1000 600"><rect width="1000" height="600" x="0" y="0" fill="white"/><g><circle r="166.66666666666666" cx="222.22222391764322" cy="244.4444359673398" fill="white" transform="matrix(2.2499999313354513,0,0,2.2499999313354517,0,-249.99999847412175)"/><path d="M149.57342135780078 319.4444491068525L149.57342135780078 183.78969130908925L104.15675606614067 183.78969130908925L104.15675606614067 169.44445364815863L211.2996099652077 169.44445364815863L211.2996099652077 183.78969130908925L165.88294467354763 183.78969130908925L165.88294467354763 319.4444491068525L149.57342135780078 319.4444491068525ZM234.87103782300247 319.4444491068525L234.87103782300247 169.44445364815863L320.5853209422561 169.44445364815863L340.28770129814006 189.14683400404263L340.28770129814006 237.36111825862278L320.3769876152301 257.30159384539365L251.1507992348885 257.30159384539365L251.1507992348885 319.4444491068525L234.87103782300247 319.4444491068525ZM251.1507992348885 243.16468951148894L313.5019878233733 243.16468951148894L324.21627321328003 232.6587374486082L324.21627321328003 194.08731004494408L313.5019878233733 183.58135798206334L251.1507992348885 183.58135798206334L251.1507992348885 243.16468951148894Z " fill="#e84118" transform="matrix(2.2499999313354513,0,0,2.2499999313354517,0,-249.99999847412175)"/><path d="MNaN 244.44445292154975 " fill="#e84118" transform="matrix(2.2499999313354513,0,0,2.2499999313354517,0,-249.99999847412175)"/></g></svg>